<?xml version="1.0" encoding="utf-8"?>
<!-- Generator: Adobe Illustrator 23.0.3, SVG Export Plug-In . SVG Version: 6.00 Build 0)  -->
<svg version="1.1" id="Layer_1" xmlns="http://www.w3.org/2000/svg" xmlns:xlink="http://www.w3.org/1999/xlink" x="0px" y="0px"
	 viewBox="0 0 2537.5 1500" style="enable-background:new 0 0 2537.5 1500;" xml:space="preserve">
<style type="text/css">
	.st0{fill:#0787A6;}
	.st1{fill:#FFFFFF;}
	.st2{fill:#32C0D1;}
	.st3{fill:#248EA9;}
	.st4{fill:#B0DFE2;}
	.st5{fill:#00CCCC;}
	.st6{fill:#00B2B2;}
</style>
<path class="st0" d="M2171.2,914.2c0.4-6.3,0.6-12.6,0.6-18.9c0-173.7-140.8-314.6-314.6-314.6c-33,0-64.7,5.1-94.6,14.5
	c0-1.1,0.1-2.2,0.1-3.3c0-215-174.3-389.3-389.3-389.3c-171.4,0-316.7,110.8-368.8,264.5c-45.2-27.1-98.2-42.7-154.7-42.7
	c-166.4,0-301.4,134.9-301.4,301.4c0,19.1,1.9,37.8,5.3,55.9c-145.8,21.1-257.7,146.6-257.7,298.2c0,166.4,134.9,301.4,301.4,301.4
	h1497.2c132.5,0,239.8-107.4,239.8-239.8C2334.5,1035.8,2266.1,946.1,2171.2,914.2z"/>
<g>
	<g>
		
			<image style="overflow:visible;opacity:0.5;" width="8619" height="5037" xlink:href="6668298C.png"  transform="matrix(0.24 0 0 0.24 179.8801 97.6727)">
		</image>
		<path class="st1" d="M2078.1,830.3c0.4-6.3,0.6-12.6,0.6-18.9c0-173.7-140.8-314.6-314.6-314.6c-33,0-64.7,5.1-94.6,14.5
			c0-1.1,0.1-2.2,0.1-3.3c0-215-174.3-389.3-389.3-389.3c-171.4,0-316.7,110.8-368.8,264.5c-45.2-27.1-98.2-42.7-154.7-42.7
			c-166.4,0-301.4,134.9-301.4,301.4c0,19.1,1.9,37.8,5.3,55.9C315,719,203,844.4,203,996c0,166.4,134.9,301.4,301.4,301.4h1497.2
			c132.5,0,239.8-107.4,239.8-239.8C2241.4,951.9,2173.1,862.3,2078.1,830.3z"/>
	</g>
</g>
<g>
	<g>
		<path class="st2" d="M675.6,996.5c-0.6-70,47.2-119.3,102.2-136c56-17,113.1,5.4,145.7,55.7c8.3,12.9,15.9,26.1,19.4,41.2
			c0.9,3.7,1.5,7.5,1.3,11.4c-0.5,10-5.4,16.7-14.7,20.5c-39.3,16.3-79.3,31-119.1,45.9c-10.2,3.8-20.3,7.7-30.6,11.3
			c-3.6,1.3-3.2,2.6-1.6,5.3c10.7,17.5,31.3,26.7,51.6,23.3c25.1-4.2,45.1-17.7,63.5-34.3c6.8-6.1,13.2-12.7,20.2-18.6
			c10.9-9.2,22.8-14.2,36.7-6.4c11.8,6.7,18,21.6,15.4,37.3c-3.8,23.6-17.3,41.4-35.7,55.4c-32.8,25-69.8,39.9-111.2,42.1
			c-41.8,2.2-75.9-13.8-102.9-45.4C689.2,1074,676,1037.5,675.6,996.5z M803.1,926.8c-29.6-1.1-53.6,30.2-47.7,61.5
			c0.9,4.7,2.1,5.9,7,4c29.8-11.3,59.6-22.3,89.5-33.3c3.3-1.2,4.2-2.5,2-5.6C842.3,937.1,827.3,927,803.1,926.8z"/>
		<path class="st2" d="M1017.2,948.2c22.8-66.1,84.5-96.6,141.9-93.9c58.4,2.7,104.8,43,118.6,101.3c3.5,14.9,6.2,29.9,4.5,45.3
			c-0.4,3.8-1.1,7.6-2.6,11.1c-3.8,9.3-10.7,13.9-20.7,14.4c-42.5,2.2-85,2.6-127.6,3.3c-10.9,0.2-21.7,0.4-32.6,0.4
			c-3.8,0-3.9,1.4-3.3,4.5c4.3,20.1,20.5,35.7,40.8,39.2c25.1,4.4,48.5-1.6,71.3-11c8.4-3.5,16.7-7.5,25.3-10.7
			c13.3-5,26.3-5.8,36.7,6.3c8.9,10.3,9.7,26.4,2,40.4c-11.5,21-30.2,33.2-52.2,40.2c-39.3,12.6-79.1,14.2-118.9,2.4
			c-40.1-11.9-66.9-38.4-81.8-77.2C1004,1025.7,1003.9,987,1017.2,948.2z M1160.6,925.2c-27.6-11-60.6,10.5-65.5,42
			c-0.7,4.7,0,6.3,5.2,6.1c31.8-0.7,63.7-1.1,95.5-1.4c3.6,0,4.8-0.9,3.8-4.6C1194.1,948.1,1183.4,933.5,1160.6,925.2z"/>
		<path class="st3" d="M1713.4,1012.4c10.2-22.5,19.9-44.2,29.8-65.8c9.7-21.1,18.9-42.5,29.9-62.9c11.6-21.4,35.6-28.1,57-16.7
			c15.5,8.3,22.4,25.8,18.3,45.3c-2.1,10-6.6,19-10.9,28.1c-24.8,53.1-49.6,106.1-74.6,159.1c-20.1,42.7-40.3,85.3-60.8,127.9
			c-6.5,13.5-16.5,23.1-31.4,27.1c-20.6,5.6-44.2-7.3-48.8-27.5c-2.5-11.1,0-22,4.1-32.4c9.3-24.1,21.4-46.9,33.3-69.7
			c4.9-9.3,5.7-16.9,1.9-27c-23.1-62.2-47-124.2-69-186.8c-3.3-9.5-5.7-19.1-3.3-29.2c3.6-15.2,14.7-22.9,28.7-26.4
			c18.8-4.8,35.5,3.1,46.3,20.3c5.2,8.2,8.4,17.1,11.2,26.3c11.1,36.4,24.2,72.2,37,108C1712.2,1010.5,1712.6,1011,1713.4,1012.4z"
			/>
		<path class="st2" d="M1539.7,1064.6c23.2,11.5,21.6,53.8,0.9,63.9c-10.4,5.1-21.5,7.2-32.7,7.2c-53.7,0.4-107.5,0.4-161.2,0.2
			c-9.4,0-18.4-2.9-26.6-8c-10.5-6.6-14.5-17.1-11.1-29.1c3-10.7,9.4-19.5,15.7-28.4c32.3-45.8,65.6-90.9,99-136
			c0.4-0.6,0.8-1.2,1.1-1.8c-1.3-1.7-3-1-4.4-1.1c-21.8,0-43.6,0-65.4-0.1c-10.3,0-20.2-2-29-7.5c-13.2-8.4-19.2-24.8-15-40.1
			c4.7-16.9,17.8-27.5,34.7-28.1c36.3-1.4,72.7-0.8,109-0.6c16.4,0.1,32.9,0.7,49.3,0.4c12.1-0.2,23.5,1.6,34.2,7.4
			c3.9,3.9,8.6,7,10.5,12.5c3.4,9.4,0.8,17.9-4.6,25.4c-14.7,20.4-29.7,40.5-44.7,60.7c-11.8,16.1-23.7,32.1-35.5,48.2
			c-10.4,13.1-20.5,26.4-30.1,40.1c-2.8,2.9-5.8,5.7-6.9,9.9c0.8,0.1,1.2,0.3,1.6,0.3c28.7,0,57.3,0.1,86-0.1
			C1523.3,1059.9,1531.7,1060.9,1539.7,1064.6z"/>
		<path class="st4" d="M598.3,913.6c0.9-66,61.8-130.9,127.4-137c9.9-0.9,18.4-0.1,19.9,11.8c1.5,11.8-7.7,13.1-16,14.2
			c-32.4,4.3-58.2,20-79.6,44.4c-14.4,16.4-22.5,35.1-24.4,56.6c-0.3,3.8-0.1,7.7-1.1,11.4c-2.4,8.8-2.4,21.1-16.1,19.2
			C596.1,932.4,599.1,921.1,598.3,913.6z"/>
		<path class="st4" d="M648.4,915c0.3-36.7,43.1-84.1,79.3-88.6c7.9-1,16.3-1.1,18.5,8.8c2.1,9.6-4.9,13.2-12.8,15.7
			c-33,10.7-54.7,31.3-59.3,67.3c-1,7.5-5,15.5-15.1,13.6C649.9,930.1,647.6,922.7,648.4,915z"/>
	</g>
	<path class="st5" d="M1534.7,482c-9,33-34.3,51.4-61.3,68c-34.6,21.3-72.6,35.2-111.1,47.7c-76.4,25-152.7,50.4-229.2,74.9
		c-37.1,11.9-74.8,21.9-113.4,28.3c-19.2,3.2-38.4,6-57.9,3.1c-0.8-0.1-1.6-0.1-2.4-0.2c-27-4.3-34.7-24-17.8-45.4
		c0.9-1.1,1.8-2.2,2.7-3.2c8-8.9,8-8.9,2.2-19.8c-10.3-19.2-20.6-38.5-30.9-57.7c-4.3-8-3.2-11.3,5-15.4c5.9-3,12-5.8,17.8-9.1
		c6.8-3.8,13.2-3.6,20.2-0.1c26.3,13.3,52.8,26.3,79.1,39.7c5.5,2.8,9.8,3.1,15.6,0.2c22.8-11.8,45.9-22.9,68.9-34.3
		c2-1,3.9-2,6.8-3.6c-2.3-1.6-4-2.9-5.8-4c-47.1-29.5-94.3-59-141.4-88.5c-1.9-1.2-3.8-2.3-5.6-3.6c-6.3-4.7-6.6-12.6,0-16.7
		c13.5-8.6,27.1-16.9,41-24.8c7.3-4.2,15.4-3.9,23.6-1.9c58.8,14.8,117.5,29.5,176.3,44.2c22.1,5.5,44.3,11.1,66.5,16.4
		c3,0.7,6.8,0.3,9.7-0.9c21.6-9.1,42.5-20.2,64.6-27.4c39.4-12.8,80.1-17.6,121.5-11.8c1.2,0.2,2.4,0.3,3.6,0.6
		c0.8,0.2,1.5,0.5,2.9,0.9c-7.4,1.3-14.2,2.1-20.8,3.6c-6.9,1.6-13.7,3.6-20.3,5.9c-6.7,2.3-13.4,4.7-19.6,8.1
		c-4.1,2.3-8.6,5.9-10.3,10c-1.4,3.2,0,9.1,2.4,11.9c1.9,2.2,7.5,2.8,10.9,1.9c9.1-2.6,17.8-6.6,26.8-9.7c21.7-7.5,44-12.1,67-13.2
		c2.4-0.1,5.7,1.4,7,3.2c2.6,3.5,4,7.7,6,11.7C1534.7,474.7,1534.7,478.4,1534.7,482z"/>
	<path class="st6" d="M1401,609.9c2,14.3,4,28.2,6,42.2c3.6,25.2,7,50.4,10.7,75.6c1.9,13-2.5,20.6-14.8,24.6
		c-10.9,3.5-21.9,7-32.9,10.5c-6.5,2.1-12.2,0.5-16.4-4.6c-28.3-33.8-56.5-67.7-84.7-101.5c-0.4-0.4-0.5-1-1.1-2.1
		C1312.1,639.6,1356.2,624.8,1401,609.9z"/>
</g>
</svg>
